<svg width="800" height="600" xmlns="http://www.w3.org/2000/svg" viewBox="0 0 800 600">
  <rect width="800" height="600" fill="#e5e7eb"/>
  <rect x="50" y="50" width="700" height="500" rx="8" fill="#f3f4f6" stroke="#d1d5db" stroke-width="2"/>
  
  <!-- Tables -->
  <circle cx="200" cy="200" r="50" fill="#fbbf24" stroke="#d97706" stroke-width="2"/>
  <circle cx="400" cy="200" r="50" fill="#fbbf24" stroke="#d97706" stroke-width="2"/>
  <circle cx="600" cy="200" r="50" fill="#fbbf24" stroke="#d97706" stroke-width="2"/>
  
  <circle cx="200" cy="400" r="50" fill="#fbbf24" stroke="#d97706" stroke-width="2"/>
  <circle cx="400" cy="400" r="50" fill="#fbbf24" stroke="#d97706" stroke-width="2"/>
  <circle cx="600" cy="400" r="50" fill="#fbbf24" stroke="#d97706" stroke-width="2"/>
  
  <!-- Chairs -->
  <circle cx="200" cy="120" r="20" fill="#1e3a8a" stroke="#1e40af" stroke-width="2"/>
  <circle cx="200" cy="280" r="20" fill="#1e3a8a" stroke="#1e40af" stroke-width="2"/>
  <circle cx="120" cy="200" r="20" fill="#1e3a8a" stroke="#1e40af" stroke-width="2"/>
  <circle cx="280" cy="200" r="20" fill="#1e3a8a" stroke="#1e40af" stroke-width="2"/>
  
  <circle cx="400" cy="120" r="20" fill="#1e3a8a" stroke="#1e40af" stroke-width="2"/>
  <circle cx="400" cy="280" r="20" fill="#1e3a8a" stroke="#1e40af" stroke-width="2"/>
  <circle cx="320" cy="200" r="20" fill="#1e3a8a" stroke="#1e40af" stroke-width="2"/>
  <circle cx="480" cy="200" r="20" fill="#1e3a8a" stroke="#1e40af" stroke-width="2"/>
  
  <circle cx="600" cy="120" r="20" fill="#1e3a8a" stroke="#1e40af" stroke-width="2"/>
  <circle cx="600" cy="280" r="20" fill="#1e3a8a" stroke="#1e40af" stroke-width="2"/>
  <circle cx="520" cy="200" r="20" fill="#1e3a8a" stroke="#1e40af" stroke-width="2"/>
  <circle cx="680" cy="200" r="20" fill="#1e3a8a" stroke="#1e40af" stroke-width="2"/>
  
  <circle cx="200" cy="320" r="20" fill="#1e3a8a" stroke="#1e40af" stroke-width="2"/>
  <circle cx="200" cy="480" r="20" fill="#1e3a8a" stroke="#1e40af" stroke-width="2"/>
  <circle cx="120" cy="400" r="20" fill="#1e3a8a" stroke="#1e40af" stroke-width="2"/>
  <circle cx="280" cy="400" r="20" fill="#1e3a8a" stroke="#1e40af" stroke-width="2"/>
  
  <circle cx="400" cy="320" r="20" fill="#1e3a8a" stroke="#1e40af" stroke-width="2"/>
  <circle cx="400" cy="480" r="20" fill="#1e3a8a" stroke="#1e40af" stroke-width="2"/>
  <circle cx="320" cy="400" r="20" fill="#1e3a8a" stroke="#1e40af" stroke-width="2"/>
  <circle cx="480" cy="400" r="20" fill="#1e3a8a" stroke="#1e40af" stroke-width="2"/>
  
  <circle cx="600" cy="320" r="20" fill="#1e3a8a" stroke="#1e40af" stroke-width="2"/>
  <circle cx="600" cy="480" r="20" fill="#1e3a8a" stroke="#1e40af" stroke-width="2"/>
  <circle cx="520" cy="400" r="20" fill="#1e3a8a" stroke="#1e40af" stroke-width="2"/>
  <circle cx="680" cy="400" r="20" fill="#1e3a8a" stroke="#1e40af" stroke-width="2"/>
  
  <text x="400" y="550" font-family="Arial" font-size="24" text-anchor="middle" fill="#4b5563">Restaurant Interior</text>
</svg>